<svg xmlns="http://www.w3.org/2000/svg" width="1200" height="780" viewBox="0 0 1200 780" fill="none"><rect width="1200" height="780" fill="white"/><text x="48" y="70" font-family="Inter, sans-serif" font-size="40" font-weight="700" fill="#1f2329">Project Timeline</text><rect x="48.0" y="110" width="258.0" height="620" rx="14" fill="#a6d8ff" fill-opacity="0.25" stroke="#a6d8ff" stroke-width="3"/><text x="64.0" y="150" font-family="Inter, sans-serif" font-size="24" font-weight="600" fill="#1f2329">Phase 1</text><rect x="60.0" y="180" width="234.0" height="96" rx="10" fill="#a6d8ff"/><text x="76.0" y="214" font-family="Inter, sans-serif" font-size="18" fill="#2a2f36"></text><rect x="60.0" y="296" width="234.0" height="96" rx="10" fill="#a6d8ff"/><text x="76.0" y="330" font-family="Inter, sans-serif" font-size="18" fill="#2a2f36"></text><rect x="330.0" y="110" width="258.0" height="620" rx="14" fill="#b7e5c3" fill-opacity="0.25" stroke="#b7e5c3" stroke-width="3"/><text x="346.0" y="150" font-family="Inter, sans-serif" font-size="24" font-weight="600" fill="#1f2329">Phase 2</text><rect x="342.0" y="180" width="234.0" height="96" rx="10" fill="#b7e5c3"/><text x="358.0" y="214" font-family="Inter, sans-serif" font-size="18" fill="#2a2f36"></text><rect x="342.0" y="296" width="234.0" height="96" rx="10" fill="#b7e5c3"/><text x="358.0" y="330" font-family="Inter, sans-serif" font-size="18" fill="#2a2f36"></text><rect x="612.0" y="110" width="258.0" height="620" rx="14" fill="#ffd0a3" fill-opacity="0.25" stroke="#ffd0a3" stroke-width="3"/><text x="628.0" y="150" font-family="Inter, sans-serif" font-size="24" font-weight="600" fill="#1f2329">Phase 3</text><rect x="624.0" y="180" width="234.0" height="96" rx="10" fill="#ffd0a3"/><text x="640.0" y="214" font-family="Inter, sans-serif" font-size="18" fill="#2a2f36"></text><rect x="624.0" y="296" width="234.0" height="96" rx="10" fill="#ffd0a3"/><text x="640.0" y="330" font-family="Inter, sans-serif" font-size="18" fill="#2a2f36"></text><rect x="894.0" y="110" width="258.0" height="620" rx="14" fill="#ffe8a3" fill-opacity="0.25" stroke="#ffe8a3" stroke-width="3"/><text x="910.0" y="150" font-family="Inter, sans-serif" font-size="24" font-weight="600" fill="#1f2329">Launch</text><rect x="906.0" y="180" width="234.0" height="96" rx="10" fill="#ffe8a3"/><text x="922.0" y="214" font-family="Inter, sans-serif" font-size="18" fill="#2a2f36"></text><rect x="906.0" y="296" width="234.0" height="96" rx="10" fill="#ffe8a3"/><text x="922.0" y="330" font-family="Inter, sans-serif" font-size="18" fill="#2a2f36"></text></svg>