<svg xmlns="http://www.w3.org/2000/svg" viewBox="0 0 400 300" width="400" height="300">
  <rect width="400" height="300" fill="white"/>
  <ellipse cx="200" cy="150" rx="70" ry="40" fill="#1e3a5f"/>
  <text x="200" y="155" text-anchor="middle" fill="white" font-size="18" font-family="sans-serif">Produit</text>
  <line x1="200" y1="110" x2="200" y2="50" stroke="#888" stroke-width="2"/>
  <line x1="130" y1="130" x2="60" y2="90" stroke="#4285f4" stroke-width="2"/>
  <line x1="130" y1="165" x2="60" y2="200" stroke="#34a853" stroke-width="2"/>
  <line x1="270" y1="130" x2="340" y2="90" stroke="#ea4335" stroke-width="2"/>
  <line x1="270" y1="165" x2="340" y2="200" stroke="#fbbc05" stroke-width="2"/>
  <rect x="150" y="20" width="100" height="30" rx="6" fill="#7b2d8b"/>
  <text x="200" y="40" text-anchor="middle" fill="white" font-size="11" font-family="sans-serif">Échéances</text>
  <rect x="10" y="70" width="90" height="30" rx="6" fill="#4285f4"/>
  <text x="55" y="90" text-anchor="middle" fill="white" font-size="11" font-family="sans-serif">Objectifs</text>
  <rect x="10" y="180" width="90" height="30" rx="6" fill="#34a853"/>
  <text x="55" y="200" text-anchor="middle" fill="white" font-size="11" font-family="sans-serif">Tâches</text>
  <rect x="300" y="70" width="90" height="30" rx="6" fill="#ea4335"/>
  <text x="345" y="90" text-anchor="middle" fill="white" font-size="11" font-family="sans-serif">Risques</text>
  <rect x="300" y="180" width="90" height="30" rx="6" fill="#fbbc05"/>
  <text x="345" y="200" text-anchor="middle" fill="white" font-size="11" font-family="sans-serif">Ressources</text>
</svg>