<svg xmlns="http://www.w3.org/2000/svg" width="1200" height="780" viewBox="0 0 1200 780" fill="none"><rect width="1200" height="780" fill="white"/><text x="48" y="70" font-family="Inter, sans-serif" font-size="40" font-weight="700" fill="#1f2329">Release Plan</text><rect x="48.0" y="110" width="352.0" height="620" rx="14" fill="#a6d8ff" fill-opacity="0.25" stroke="#a6d8ff" stroke-width="3"/><text x="64.0" y="150" font-family="Inter, sans-serif" font-size="24" font-weight="600" fill="#1f2329">Now</text><rect x="60.0" y="180" width="328.0" height="96" rx="10" fill="#a6d8ff"/><text x="76.0" y="214" font-family="Inter, sans-serif" font-size="18" fill="#2a2f36"></text><rect x="60.0" y="296" width="328.0" height="96" rx="10" fill="#a6d8ff"/><text x="76.0" y="330" font-family="Inter, sans-serif" font-size="18" fill="#2a2f36"></text><rect x="424.0" y="110" width="352.0" height="620" rx="14" fill="#ffd0a3" fill-opacity="0.25" stroke="#ffd0a3" stroke-width="3"/><text x="440.0" y="150" font-family="Inter, sans-serif" font-size="24" font-weight="600" fill="#1f2329">Next</text><rect x="436.0" y="180" width="328.0" height="96" rx="10" fill="#ffd0a3"/><text x="452.0" y="214" font-family="Inter, sans-serif" font-size="18" fill="#2a2f36"></text><rect x="436.0" y="296" width="328.0" height="96" rx="10" fill="#ffd0a3"/><text x="452.0" y="330" font-family="Inter, sans-serif" font-size="18" fill="#2a2f36"></text><rect x="800.0" y="110" width="352.0" height="620" rx="14" fill="#dcdcdc" fill-opacity="0.25" stroke="#dcdcdc" stroke-width="3"/><text x="816.0" y="150" font-family="Inter, sans-serif" font-size="24" font-weight="600" fill="#1f2329">Later</text><rect x="812.0" y="180" width="328.0" height="96" rx="10" fill="#dcdcdc"/><text x="828.0" y="214" font-family="Inter, sans-serif" font-size="18" fill="#2a2f36"></text><rect x="812.0" y="296" width="328.0" height="96" rx="10" fill="#dcdcdc"/><text x="828.0" y="330" font-family="Inter, sans-serif" font-size="18" fill="#2a2f36"></text></svg>